<svg xmlns="http://www.w3.org/2000/svg" fill="none" viewBox="0 0 22 36"><path fill="currentColor" d="M6.46.54c-.64.63-1.17 1.53-.49 2.82.36.66 1.41 1.43 1.33 1.59-.06.18-.44.5-.84.7C4 6.97 2.46 10.1 3 12.62c.32 1.56.9 2.6 2.12 3.76.58.6 1.08 1.16 1.08 1.28 0 .12-.46.38-1.04.58C2.08 19.32.02 21.9 0 24.62c0 1.16.44 2.1 1.08 2.26 1.54.39 2.62-.66 2.92-2.78.28-1.88.88-3.14 1.54-3.14.2 0 .26.44.26 1.9 0 1.04.12 2.28.28 2.74 1.12 3.57 1.12 4.19-.02 4.43-1.3.28-2.66 1.64-2.66 2.66 0 1.12 1.78 2.08 3.34 1.8 1.25-.24 2.43-.9 2.89-1.64.36-.6.42-.94.36-2.34l-.08-1.64 1.2-.12c1.46-.16 1.84.02 2.02.94.12.66.06.76-.98 1.74A4.86 4.86 0 0 0 10.9 33c-.46 1.86 1.66 2.96 3.8 1.98 2.08-.96 2.54-2.48 1.58-5.16-.52-1.46-.56-1.76-.56-4.85-.02-3.4.08-3.8.8-3.2.62.5 1.28 1.76 1.28 2.42a5.2 5.2 0 0 1-.32 1.5c-.66 1.7.18 3.17 1.8 3.17 2.4 0 3.36-2.3 2.24-5.4a7.9 7.9 0 0 0-4.6-4.91c-1.16-.46-1.5-1.06-.74-1.3.2-.06.82-.58 1.36-1.16 2.86-3.02 2.4-7.43-1.04-10.07-.38-.28-.7-.66-.7-.82 0-.18.67-.38 1.05-.8 1.06-1.18.9-3.02-.33-3.54C15.61.49 14.5.53 13 1.95c-.76.72-1.31 1.8-1.47 1.8-.28 0-.64-1.03-1.34-2.15-.02-.32-1.07-1.26-1.4-1.4-.45-.43-1.9-.1-2.33.34ZM7.6 9.47c1.19 1 1.5 2.28.89 3.59C7.26 15.66 4 14.82 4 11.89c0-1.18.42-2.04 1.26-2.54.88-.54 1.6-.5 2.34.12Zm5.75.38c1 .42 1.5 1.14 1.62 2.3.16 1.67-.98 3.2-2.36 3.2s-2.52-1.53-2.34-3.17a2.7 2.7 0 0 1 1.56-2.27c.84-.2.64-.18 1.52-.06Z"/></svg>